<svg xmlns="http://www.w3.org/2000/svg" height="48" viewBox="0 96 960 960" width="48"><path d="M224.218 994.826q-32.71 0-57.943-24.949-25.232-24.95-25.232-58.225V240.348q0-33.508 25.232-58.624 25.233-25.115 57.943-25.115h360.956l234.348 232.782v522.261q0 33.275-25.398 58.225-25.399 24.949-58.342 24.949H224.218ZM445 859.956h70v-40h55q15.916 0 25.458-9.379 9.542-9.38 9.542-24.915V650.521q0-15.436-9.542-25.218t-25.598-9.782H425v-65h180v-69.434h-90v-40h-70v40h-55q-15.916 0-25.458 9.619-9.542 9.62-9.542 24.815v135.141q0 15.776 9.542 25.317 9.542 9.542 25.598 9.542H535v65H355v69.435h90v40Zm114.13-469.565h160.218L559.13 230.304v160.087Z"/></svg>