<svg xmlns="http://www.w3.org/2000/svg" height="48" viewBox="0 96 960 960" width="48"><path d="M449.522 953.522q-130.826-10.87-219.652-107.783-88.827-96.913-88.827-228.174 0-77.261 35.044-146.739 35.043-69.478 97.435-115.478l59.348 59.348q-51.261 32.869-79.957 87.369-28.695 54.5-28.695 115.5 0 98.305 64.217 169.391 64.217 71.087 161.087 82.826v83.74Zm63.956 0v-83.74q98.435-12.869 161.087-83.391 62.652-70.521 62.652-168.826 0-103.913-70.608-178.086Q596 365.305 492.087 361.913h-20.826l60.218 60.783-50.305 51.305L325.739 318l155.435-156.566 50.305 50.304-66.436 66.436h21.392q139.13 0 236.826 99.848t97.696 239.543q0 131.261-88.827 227.609-88.826 96.348-218.652 108.348Z"/></svg>