<svg xmlns="http://www.w3.org/2000/svg" height="48" viewBox="0 96 960 960" width="48"><path d="M859.609 540.435v334.826q0 33.501-25.002 58.338-25.003 24.836-58.737 24.836H183.696q-34.139 0-58.657-24.836-24.518-24.837-24.518-58.338V542.696q-30.434-28.826-37.304-66.424-6.87-37.598 4.565-72.968l43.505-136.181q10.495-32.08 33.066-50.341 22.571-18.261 55.237-18.261H755.9q32.779 0 57.549 19.044 24.769 19.044 35.464 49.435l43.87 136.304q11.435 34.87 3.152 72.522-8.283 37.652-36.326 64.609ZM570.937 498.87q24.163 0 42.765-16t15.602-41.305L604.87 282.261h-87.305v158.304q0 23.774 15.067 41.039 15.067 17.266 38.305 17.266Zm-187.853 0q24.165 0 42.258-16.766 18.093-16.765 18.093-41.539V282.261h-87.174L331.826 441.13q-4.435 25.044 10.87 41.392Q358 498.87 383.084 498.87Zm-182.691 0q20.303 0 36.303-15.218 16-15.217 18.869-36.652l25.565-164.739h-86.869l-44.87 140.869q-9.869 29.99 6.218 52.865 16.087 22.875 44.784 22.875Zm558.647 0q29.134 0 45.134-22.435t7-53.305l-44-140.869h-86.609L705 447q1.87 21.435 17.313 36.652 15.443 15.218 36.727 15.218ZM183.696 875.261H775.87V582.044q2.875.565-4.063.283-6.937-.283-13.015-.283-22.269 0-45.465-9.37-23.197-9.369-46.84-29.239-16.487 18.305-41.04 28.457-24.553 10.152-51.423 10.152-29.894 0-52.394-7.935t-41.065-24.674q-17.106 15.275-39.401 23.942-22.294 8.667-50.404 8.667-31.87 0-55.48-10.102-23.61-10.102-41.584-28.507-24.826 19.566-49.022 29.087-24.196 9.522-43.978 9.522-7 0-11.655.283-4.655.282-5.345-.283v293.217Zm592.174 0H183.696 775.87Z"/></svg>